<?xml version="1.0" encoding="utf-8"?>
<!-- Generator: Adobe Illustrator 19.0.0, SVG Export Plug-In . SVG Version: 6.00 Build 0)  -->
<svg version="1.1" id="图层_1" xmlns="http://www.w3.org/2000/svg" xmlns:xlink="http://www.w3.org/1999/xlink" x="0px" y="0px"
	 viewBox="0 0 960 800" style="enable-background:new 0 0 960 958.1;" xml:space="preserve">
<style type="text/css">
	.st0{fill:#565757;stroke:#565757;stroke-width:17;stroke-miterlimit:10;}
	.st1{fill:#1F5E80;}
	.st2{fill:#F5B53F;stroke:#F5B53F;stroke-width:17;stroke-miterlimit:10;}
</style>
<g>
	<g>
		<path class="st0" d="M575.5,263.9c-12.9-2.8-25.8,5.2-28.7,18L469,624.1c-2.9,12.8,5.3,25.6,18.2,28.5c1.9,0.5,3.3,0.5,5.3,0.5
			c11,0,21-7.6,23.4-18.5l77.9-342.2C596.6,279.5,588.4,266.7,575.5,263.9L575.5,263.9z M575.5,263.9"/>
	</g>
	<g>
		<path class="st1" d="M157,545.1c0,10.4-3.2,18.8-9.6,25.2c-6.4,6.4-14.9,9.6-25.4,9.6c-10.5,0-19-3.2-25.4-9.6
			c-6.4-6.4-9.6-14.8-9.6-25.2V336.5c0-10.4,3.2-18.8,9.6-25.2c6.4-6.4,14.9-9.6,25.4-9.6c10.5,0,19,3.2,25.4,9.6
			c6.4,6.4,9.6,14.8,9.6,25.2V545.1z M409.2,545.1c0,10.4-3.2,18.8-9.6,25.2c-6.4,6.4-14.9,9.6-25.4,9.6c-10.5,0-19-3.2-25.4-9.6
			c-6.4-6.4-9.6-14.8-9.6-25.2v-52.2c0-11.6-5.8-17.4-17.5-17.4h-94.5c-10.5,0-19-3.2-25.4-9.6c-6.4-6.4-9.6-14.8-9.6-25.2
			c0-10.4,3.2-18.8,9.6-25.2c6.4-6.4,14.9-9.6,25.4-9.6h94.5c11.7,0,17.5-5.8,17.5-17.4v-52.2c0-10.4,3.2-18.8,9.6-25.2
			c6.4-6.4,14.9-9.6,25.4-9.6c10.5,0,19,3.2,25.4,9.6c6.4,6.4,9.6,14.8,9.6,25.2V545.1z"/>
	</g>
	<g>
	</g>
	<path class="st2" d="M822.7,437.2L697.5,319.5c-9.6-9-24.9-8.5-33.9,0.9c-9.1,9.5-8.6,24.7,1,33.7l108,101.6L670.7,563
		c-9.1,9.5-8.6,24.7,1,33.7c4.3,4.3,10.5,6.6,16.2,6.6c6.2,0,12.9-2.4,17.7-8.1l118.1-124.4C832.8,461.4,832.3,446.2,822.7,437.2
		L822.7,437.2z"/>
</g>
</svg>
